<?xml version="1.0" standalone="no"?><!DOCTYPE svg PUBLIC "-//W3C//DTD SVG 1.1//EN" "http://www.w3.org/Graphics/SVG/1.1/DTD/svg11.dtd"><svg t="1689165459567" class="icon" viewBox="0 0 1024 1024" version="1.1" xmlns="http://www.w3.org/2000/svg" p-id="1658" width="32" height="32" xmlns:xlink="http://www.w3.org/1999/xlink"><path d="M0 0m219.428571 0l585.142858 0q219.428571 0 219.428571 219.428571l0 585.142858q0 219.428571-219.428571 219.428571l-585.142858 0q-219.428571 0-219.428571-219.428571l0-585.142858q0-219.428571 219.428571-219.428571Z" fill="#007AFF" p-id="1659"></path><path d="M512 256c141.385143 0 256 114.614857 256 256 0 59.794286-20.48 114.779429-54.838857 158.354286L713.142857 749.714286a18.285714 18.285714 0 0 1-18.285714 18.285714H512c-141.385143 0-256-114.614857-256-256s114.614857-256 256-256z m-1.133714 109.714286c-7.643429 0-14.08 1.517714-19.291429 4.534857a37.065143 37.065143 0 0 0-12.617143 11.885714c-3.2 4.864-6.217143 11.008-9.033143 18.413714l-5.979428 15.725715-1.28 3.291428-70.582857 183.716572a247.222857 247.222857 0 0 0-6.217143 17.188571 40.96 40.96 0 0 0-1.865143 11.958857c0 6.692571 2.706286 12.672 8.100571 17.938286 5.394286 5.284571 11.593143 7.917714 18.633143 7.917714 8.283429 0 14.244571-2.468571 17.883429-7.424 3.273143-4.461714 7.149714-12.653714 11.648-24.557714l1.517714-4.114286 13.165714-36.278857h112.201143l13.165715 35.510857c1.773714 4.388571 3.876571 9.435429 6.326857 15.158857 2.432 5.723429 4.736 9.965714 6.857143 12.726858 2.139429 2.779429 4.772571 4.955429 7.917714 6.582857 3.126857 1.590857 6.893714 2.395429 11.282286 2.395428 7.533714 0 13.970286-2.742857 19.309714-8.210285 5.321143-5.467429 7.990857-11.483429 7.990857-18.029715 0-5.668571-2.285714-14.445714-6.857143-26.258285l-1.609143-4.041143-72.100571-182.582857a920.137143 920.137143 0 0 0-8.374857-21.888 82.56 82.56 0 0 0-8.100572-15.36 37.796571 37.796571 0 0 0-12.617143-11.666286c-5.193143-3.017143-11.702857-4.534857-19.474285-4.534857z m0.731428 54.857143L548.571429 548.571429h-82.285715l45.293715-128z" fill="#FFFFFF" p-id="1660"></path></svg>